<?xml version="1.0" encoding="utf-8"?>
<!-- Generator: Adobe Illustrator 16.0.0, SVG Export Plug-In . SVG Version: 6.00 Build 0)  -->
<!DOCTYPE svg PUBLIC "-//W3C//DTD SVG 1.1//EN" "http://www.w3.org/Graphics/SVG/1.1/DTD/svg11.dtd">
<svg version="1.1" id="Layer_1" xmlns="http://www.w3.org/2000/svg" xmlns:xlink="http://www.w3.org/1999/xlink" x="0px" y="0px"
	 width="359px" height="358.5px" viewBox="130.5 0 359 358.5" enable-background="new 130.5 0 359 358.5" xml:space="preserve">
<g>
	<polygon fill="#F14420" points="322.903,91.5 297.903,91.5 297.903,166.5 222.903,166.5 222.903,191.5 297.903,191.5 
		297.903,266.5 322.903,266.5 322.903,191.5 397.903,191.5 397.903,166.5 322.903,166.5 	"/>
	<path fill="#F14420" stroke="#F14420" stroke-width="4" stroke-miterlimit="10" d="M310.403,4c-96.563,0-175,78.438-175,175
		s78.438,175,175,175s175-78.438,175-175S406.966,4,310.403,4z M310.403,341.5c-89.688,0-162.5-72.813-162.5-162.5
		s72.813-162.5,162.5-162.5s162.5,72.813,162.5,162.5S400.091,341.5,310.403,341.5z"/>
</g>
<g id="qv1jLj_1_">
</g>
</svg>
