<?xml version="1.0" encoding="utf-8"?>
<!-- Generator: Adobe Illustrator 16.0.0, SVG Export Plug-In . SVG Version: 6.00 Build 0)  -->
<!DOCTYPE svg PUBLIC "-//W3C//DTD SVG 1.1//EN" "http://www.w3.org/Graphics/SVG/1.1/DTD/svg11.dtd">
<svg version="1.1" id="Layer_1" xmlns="http://www.w3.org/2000/svg" xmlns:xlink="http://www.w3.org/1999/xlink" x="0px" y="0px"
	 width="600px" height="400px" viewBox="0 0 600 400" enable-background="new 0 0 600 400" xml:space="preserve">
<g>
	<path fill="#F14420" stroke="#F14420" stroke-width="4" stroke-miterlimit="10" d="M235.5,87.5v-25h-75v25h-50v250h375v-250H235.5z
		 M473,325H123V100h350V325z"/>
	<path fill="#F14420" stroke="#F14420" stroke-width="4" stroke-miterlimit="10" d="M360.5,293.75c45,0,81.25-36.25,81.25-81.25
		s-36.25-81.25-81.25-81.25c-44.688,0-81.25,36.25-81.25,81.25S315.813,293.75,360.5,293.75z M360.5,143.75
		c37.813,0,68.75,30.938,68.75,68.75s-30.938,68.75-68.75,68.75s-68.75-30.938-68.75-68.75S322.688,143.75,360.5,143.75z"/>
	<path fill="#F14420" stroke="#F14420" stroke-width="4" stroke-miterlimit="10" d="M360.5,256.25
		c24.063,0,43.75-19.688,43.75-43.75s-19.688-43.75-43.75-43.75s-43.75,19.688-43.75,43.75S336.438,256.25,360.5,256.25z M360.5,200
		c6.875,0,12.5,5.625,12.5,12.5s-5.625,12.5-12.5,12.5s-12.5-5.625-12.5-12.5S353.625,200,360.5,200z"/>
</g>
</svg>
