<?xml version="1.0" encoding="utf-8"?>
<!-- Generator: Adobe Illustrator 18.1.1, SVG Export Plug-In . SVG Version: 6.00 Build 0)  -->
<svg version="1.1" id="Layer_1" xmlns="http://www.w3.org/2000/svg" xmlns:xlink="http://www.w3.org/1999/xlink" x="0px" y="0px"
	 viewBox="-415 217 128 128" enable-background="new -415 217 128 128" xml:space="preserve">
<g>
	<path fill="#F14420" d="M-317.1,235.1c-8.7-8.7-20.7-14.1-33.9-14.1s-25.3,5.4-33.9,14.1c-8.7,8.7-14.1,20.7-14.1,33.9
		c0,14,5.4,26.7,14.1,35.9L-351,341l33.9-36.1c8.7-9.2,14.1-21.9,14.1-35.9C-303,255.7-308.4,243.7-317.1,235.1z M-320,302.2l-31,33
		l-31-33c-8.4-8.9-13-20.6-13-33.2c0-11.8,4.6-22.8,12.9-31.1c8.3-8.3,19.4-12.9,31.1-12.9s22.8,4.6,31.1,12.9
		c8.3,8.3,12.9,19.4,12.9,31.1C-307,281.5-311.6,293.3-320,302.2z"/>
	<circle fill="#F14420" cx="-351" cy="269" r="16"/>
</g>
</svg>
