<?xml version="1.0" encoding="utf-8"?>
<!-- Generator: Adobe Illustrator 18.1.1, SVG Export Plug-In . SVG Version: 6.00 Build 0)  -->
<svg version="1.1" id="Layer_1" xmlns="http://www.w3.org/2000/svg" xmlns:xlink="http://www.w3.org/1999/xlink" x="0px" y="0px"
	 viewBox="-415 217 128 128" enable-background="new -415 217 128 128" xml:space="preserve">
<g>
	<path fill="#F14420" d="M-351,309c15.5,0,28-12.5,28-28v-8v-4v-8v-4v-8c0-15.5-12.5-28-28-28s-28,12.5-28,28v8v4v8v4v8
		C-379,296.5-366.5,309-351,309z M-363,273h-12v-4h12c2.2,0,4-1.8,4-4s-1.8-4-4-4h-12v-4h12c2.2,0,4-1.8,4-4s-1.8-4-4-4h-12
		c0-13.2,10.8-24,24-24s24,10.8,24,24h-12c-2.2,0-4,1.8-4,4s1.8,4,4,4h12v4h-12c-2.2,0-4,1.8-4,4s1.8,4,4,4h12v4h-12
		c-2.2,0-4,1.8-4,4s1.8,4,4,4h12c0,13.2-10.8,24-24,24s-24-10.8-24-24h12c2.2,0,4-1.8,4-4S-360.8,273-363,273z"/>
	<path fill="#F14420" d="M-313,281h-4c0,18.7-15.3,34-34,34s-34-15.3-34-34h-4c0,20.3,16,36.9,36,37.9V337h-14v4h14h4h14v-4h-14
		v-18.1C-329,317.9-313,301.3-313,281z"/>
</g>
</svg>
