<?xml version="1.0" encoding="utf-8"?>
<!-- Generator: Adobe Illustrator 18.1.1, SVG Export Plug-In . SVG Version: 6.00 Build 0)  -->
<svg version="1.1" id="Layer_1" xmlns="http://www.w3.org/2000/svg" xmlns:xlink="http://www.w3.org/1999/xlink" x="0px" y="0px"
	 viewBox="-415 217 128 128" enable-background="new -415 217 128 128" xml:space="preserve">
<path fill="#F14420" d="M-367,237v16v4v52c-3.6-4.9-9.4-8-16-8c-11,0-20,9-20,20s9,20,20,20s20-9,20-20v-64.9l60-14.1V293
	c-3.6-4.9-9.4-8-16-8c-11,0-20,9-20,20s9,20,20,20s20-9,20-20v-64v-4v-16L-367,237z M-383,337c-8.8,0-16-7.2-16-16s7.2-16,16-16
	s16,7.2,16,16S-374.2,337-383,337z M-319,321c-8.8,0-16-7.2-16-16s7.2-16,16-16s16,7.2,16,16S-310.2,321-319,321z"/>
</svg>
